<?xml version="1.0" encoding="UTF-8" standalone="no"?>
<!-- Created with Inkscape (http://www.inkscape.org/) -->

<svg
   width="55.812355mm"
   height="60.523731mm"
   viewBox="0 0 55.812355 60.523731"
   version="1.1"
   id="svg1"
   inkscape:version="1.4.2 (2aeb623e1d, 2025-05-12)"
   sodipodi:docname="lupa.svg"
   xmlns:inkscape="http://www.inkscape.org/namespaces/inkscape"
   xmlns:sodipodi="http://sodipodi.sourceforge.net/DTD/sodipodi-0.dtd"
   xmlns="http://www.w3.org/2000/svg"
   xmlns:svg="http://www.w3.org/2000/svg">
  <sodipodi:namedview
     id="namedview1"
     pagecolor="#ffffff"
     bordercolor="#000000"
     borderopacity="0.25"
     inkscape:showpageshadow="2"
     inkscape:pageopacity="0.0"
     inkscape:pagecheckerboard="0"
     inkscape:deskcolor="#d1d1d1"
     inkscape:document-units="mm"
     inkscape:zoom="0.74386223"
     inkscape:cx="108.89113"
     inkscape:cy="14.115517"
     inkscape:window-width="1920"
     inkscape:window-height="1043"
     inkscape:window-x="0"
     inkscape:window-y="0"
     inkscape:window-maximized="1"
     inkscape:current-layer="layer1" />
  <defs
     id="defs1" />
  <g
     inkscape:label="Layer 1"
     inkscape:groupmode="layer"
     id="layer1"
     transform="translate(-76.200002,-144.72708)">
    <g
       id="g2"
       transform="matrix(0.26458333,0,0,0.26458333,21.516525,81.572929)"
       inkscape:export-filename="../8ba6701f/vl.png"
       inkscape:export-xdpi="96"
       inkscape:export-ydpi="96">
      <path
         d="m 320.00057,238.7396 c 0.38707,-0.003 0.77415,-0.006 1.17296,-0.01 15.95672,-0.10054 15.95672,-0.10054 22.91171,1.44173 0.40763,0.0841 0.81525,0.16815 1.23523,0.25477 22.41446,4.69114 41.93032,17.7144 55.1009,36.40842 0.18465,0.26124 0.3693,0.52247 0.55955,0.79162 8.8211,12.66488 13.94253,27.34637 15.9836,42.57826 0.0882,0.65705 0.0882,0.65705 0.17814,1.32736 1.33919,12.59557 -0.19534,25.47107 -3.75504,37.5714 -0.15821,0.544 -0.15821,0.544 -0.31962,1.099 -7.14158,24.07763 -23.89481,43.77373 -45.7123,55.85409 -10.66907,5.71157 -23.2169,9.35866 -35.34249,9.66661 -0.38392,0.0115 -0.76785,0.023 -1.16341,0.0349 -9.89852,0.26366 -19.31642,-0.68799 -28.7931,-3.61182 -0.30936,-0.0937 -0.61871,-0.18746 -0.93745,-0.28404 -7.71242,-2.3842 -15.24003,-5.92037 -21.92302,-10.44797 -1.50309,-1.00521 -2.09628,-1.34002 -3.96625,-1.34002 -2.40603,1.4705 -4.74735,3.89221 -6.25958,6.25957 -0.30836,1.73836 -0.2136,3.12316 -0.0332,4.87108 0.0381,1.59411 -0.15039,2.03642 -1.19637,3.20488 -0.62782,0.59281 -1.262,1.17891 -1.90022,1.76051 -0.58716,0.64135 -1.17385,1.28318 -1.75363,1.93122 -2.72202,3.03168 -5.60181,5.90498 -8.50703,8.76006 -1.45819,1.44014 -2.87226,2.88905 -4.20587,4.44591 -2.35981,2.74087 -4.98523,5.22773 -7.55899,7.76507 -2.00538,1.98803 -3.94245,3.99233 -5.78036,6.13557 -1.67725,1.90393 -3.46892,3.69794 -5.25248,5.50158 -0.38241,0.39538 -0.76482,0.79076 -1.15882,1.19812 -3.3374,3.37048 -6.37755,5.41511 -11.2206,5.5365 -3.82103,-0.0419 -6.96538,-1.22825 -9.7666,-3.8511 -3.15051,-3.4961 -4.04282,-7.19465 -3.9524,-11.84323 0.58952,-6.13401 6.04454,-10.59076 10.19799,-14.6534 0.90045,-0.88392 1.79939,-1.76933 2.69665,-2.65647 0.21712,-0.21463 0.43425,-0.42926 0.65796,-0.65039 1.4331,-1.42704 2.76747,-2.90881 4.07951,-4.44589 2.10476,-2.35742 4.41416,-4.53568 6.66323,-6.7546 2.3587,-2.32992 4.67484,-4.66395 6.83004,-7.18676 1.45738,-1.6489 3.04469,-3.17196 4.6139,-4.71345 2.60694,-2.53869 2.60694,-2.53869 5.01255,-5.26405 0.96757,-1.16319 0.96757,-1.16319 2.30891,-2.05741 0.7658,0.0502 1.52996,0.1281 2.29145,0.22355 1.72429,0.0433 2.40302,-0.0441 3.76552,-1.13699 1.01443,-1.15229 1.95516,-2.3368 2.88527,-3.55769 0.44624,-0.4755 0.90036,-0.94406 1.36928,-1.39722 0.28587,-0.27665 0.57175,-0.5533 0.86628,-0.83833 -0.58994,-1.71682 -1.29901,-2.80584 -2.54819,-4.11483 -16.25675,-17.75596 -22.38224,-43.69641 -21.66922,-67.13712 1.09839,-24.36729 12.50626,-47.44065 30.21303,-64.02916 2.21155,-1.99358 4.57597,-3.7932 6.97063,-5.55921 0.47435,-0.34985 0.94868,-0.6997 1.4374,-1.06015 11.14032,-7.94557 23.94974,-13.26801 37.46136,-15.483 0.46905,-0.0783 0.93809,-0.15655 1.42134,-0.23721 1.94205,-0.23861 3.83749,-0.29019 5.79183,-0.30072 z"
         fill="#fefefd"
         id="path2"
         style="stroke-width:0.447112" />
      <path
         d="m 320.00057,238.7396 c 0.38707,-0.003 0.77415,-0.006 1.17296,-0.01 15.95672,-0.10054 15.95672,-0.10054 22.91171,1.44173 0.40763,0.0841 0.81525,0.16815 1.23523,0.25477 22.41446,4.69114 41.93032,17.7144 55.1009,36.40842 0.18465,0.26124 0.3693,0.52247 0.55955,0.79162 8.8211,12.66488 13.94253,27.34637 15.9836,42.57826 0.0882,0.65705 0.0882,0.65705 0.17814,1.32736 1.33919,12.59557 -0.19534,25.47107 -3.75504,37.5714 -0.15821,0.544 -0.15821,0.544 -0.31962,1.099 -7.14158,24.07763 -23.89481,43.77373 -45.7123,55.85409 -10.66907,5.71157 -23.2169,9.35866 -35.34249,9.66661 -0.38392,0.0115 -0.76785,0.023 -1.16341,0.0349 -9.89852,0.26366 -19.31642,-0.68799 -28.7931,-3.61182 -0.30936,-0.0937 -0.61871,-0.18746 -0.93745,-0.28404 -7.71242,-2.3842 -15.24003,-5.92037 -21.92302,-10.44797 -1.50309,-1.00521 -2.09628,-1.34002 -3.96625,-1.34002 -2.40603,1.4705 -4.74735,3.89221 -6.25958,6.25957 -0.30836,1.73836 -0.2136,3.12316 -0.0332,4.87108 0.0381,1.59411 -0.15039,2.03642 -1.19637,3.20488 -0.62782,0.59281 -1.262,1.17891 -1.90022,1.76051 -0.58716,0.64135 -1.17385,1.28318 -1.75363,1.93122 -2.72202,3.03168 -5.60181,5.90498 -8.50703,8.76006 -1.45819,1.44014 -2.87226,2.88905 -4.20587,4.44591 -2.35981,2.74087 -4.98523,5.22773 -7.55899,7.76507 -2.00538,1.98803 -3.94245,3.99233 -5.78036,6.13557 -1.67725,1.90393 -3.46892,3.69794 -5.25248,5.50158 -0.38241,0.39538 -0.76482,0.79076 -1.15882,1.19812 -3.3374,3.37048 -6.37755,5.41511 -11.2206,5.5365 -3.82103,-0.0419 -6.96538,-1.22825 -9.7666,-3.8511 -3.15051,-3.4961 -4.04282,-7.19465 -3.9524,-11.84323 0.58952,-6.13401 6.04454,-10.59076 10.19799,-14.6534 0.90045,-0.88392 1.79939,-1.76933 2.69665,-2.65647 0.21712,-0.21463 0.43425,-0.42926 0.65796,-0.65039 1.4331,-1.42704 2.76747,-2.90881 4.07951,-4.44589 2.10476,-2.35742 4.41416,-4.53568 6.66323,-6.7546 2.3587,-2.32992 4.67484,-4.66395 6.83004,-7.18676 1.45738,-1.6489 3.04469,-3.17196 4.6139,-4.71345 2.60694,-2.53869 2.60694,-2.53869 5.01255,-5.26405 0.96757,-1.16319 0.96757,-1.16319 2.30891,-2.05741 0.7658,0.0502 1.52996,0.1281 2.29145,0.22355 1.72429,0.0433 2.40302,-0.0441 3.76552,-1.13699 1.01443,-1.15229 1.95516,-2.3368 2.88527,-3.55769 0.44624,-0.4755 0.90036,-0.94406 1.36928,-1.39722 0.28587,-0.27665 0.57175,-0.5533 0.86628,-0.83833 -0.58994,-1.71682 -1.29901,-2.80584 -2.54819,-4.11483 -16.25675,-17.75596 -22.38224,-43.69641 -21.66922,-67.13712 1.09839,-24.36729 12.50626,-47.44065 30.21303,-64.02916 2.21155,-1.99358 4.57597,-3.7932 6.97063,-5.55921 0.47435,-0.34985 0.94868,-0.6997 1.4374,-1.06015 11.14032,-7.94557 23.94974,-13.26801 37.46136,-15.483 0.46905,-0.0783 0.93809,-0.15655 1.42134,-0.23721 1.94205,-0.23861 3.83749,-0.29019 5.79183,-0.30072 z m -14.14342,14.7058 c -0.38882,0.11333 -0.77764,0.22665 -1.17825,0.34341 -4.02049,1.2188 -7.80077,2.86013 -11.56444,4.71454 -0.29611,0.14409 -0.59221,0.28818 -0.89728,0.43664 -18.41994,9.05808 -32.46615,25.86806 -39.30483,45.07994 -1.65225,4.85338 -2.82804,9.77799 -3.61488,14.84356 -0.0696,0.44129 -0.0696,0.44129 -0.1407,0.8915 -0.42476,3.16321 -0.38961,6.35246 -0.38926,9.53802 -10e-4,0.98685 -0.009,1.97346 -0.0176,2.96027 -0.0851,21.28252 8.29292,41.4325 22.90315,56.80681 0.32063,0.3389 0.32063,0.3389 0.64774,0.68464 12.84004,13.48428 31.48855,23.12732 50.32827,23.62534 1.29314,0.0232 2.58572,0.0301 3.87906,0.0297 0.33993,4.8e-4 0.67987,0.001 1.03011,0.001 6.44515,-0.0129 12.53801,-0.77631 18.78254,-2.43262 0.36498,-0.0957 0.72995,-0.19135 1.10599,-0.28993 12.88202,-3.52068 23.65506,-10.84473 33.32164,-19.83012 0.4461,-0.40978 0.4461,-0.40978 0.90121,-0.82785 14.87225,-14.20723 23.11578,-35.54219 23.79999,-55.85758 0.35214,-18.8971 -4.7452,-37.89717 -16.65318,-52.85703 -0.19049,-0.24027 -0.38097,-0.48054 -0.57723,-0.72809 -11.09286,-13.87429 -25.63692,-23.28726 -42.79265,-27.88709 -0.36965,-0.10101 -0.73931,-0.20202 -1.12018,-0.30609 -5.72411,-1.48906 -11.44371,-1.65398 -17.32319,-1.67797 -0.5332,-0.004 -0.5332,-0.004 -1.07718,-0.009 -6.83683,-0.034 -13.47782,0.80908 -20.04887,2.74716 z"
         fill="#0b3260"
         id="path3"
         style="stroke-width:0.447112" />
      <path
         d="m 329.33054,288.45987 c 1.59919,0.98673 2.42378,1.85522 3.12979,3.57689 0.25645,2.04833 0.26019,3.88879 -0.58684,5.78451 -0.7545,0.92217 -0.7545,0.92217 -1.45802,1.46502 -0.96281,1.20536 -0.83335,2.24229 -0.86662,3.76585 -0.0238,0.87101 -0.0238,0.87101 -0.048,1.75963 -0.0103,0.61332 -0.0205,1.22665 -0.0306,1.83997 -0.0148,0.61858 -0.0302,1.23714 -0.0463,1.85569 -0.0369,1.5145 -0.0678,3.02888 -0.0934,4.5436 0.50201,-0.0519 1.00401,-0.10374 1.52123,-0.15718 5.25177,-0.38322 5.25177,-0.38322 7.29177,0.94836 0.93964,1.0811 0.93964,1.0811 1.82687,2.32638 0.78436,1.07781 1.44481,1.81919 2.4172,2.69315 2.43862,2.23644 4.16391,3.9082 4.31339,7.34537 -0.0601,1.43145 -0.23151,2.85632 -0.3802,4.2813 3.98377,0 7.96754,0 12.07203,0 0.44264,-0.88528 0.44264,-0.88528 0.89422,-1.78845 0.83468,-0.93483 1.46673,-1.29048 2.70538,-1.4863 2.43165,-0.11852 3.92511,0.25068 5.78975,1.93341 1.19081,1.89447 1.13583,4.08899 0.89423,6.25957 -0.5913,1.74104 -1.16585,2.52758 -2.54295,3.74456 -1.7812,0.8738 -3.11228,1.18687 -5.05796,0.72656 -1.34794,-0.78896 -2.42033,-1.71089 -3.12979,-3.12979 -3.68867,-0.14754 -7.37734,-0.29509 -11.1778,-0.44711 0,8.11509 0,16.23017 0,24.59117 0.59019,0.2951 1.18038,0.59019 1.78845,0.89422 1.5057,1.72081 1.57196,3.42027 1.49678,5.61685 -0.23507,1.64813 -0.82081,2.56076 -1.94389,3.77251 -1.81129,1.18128 -3.21194,1.65537 -5.36534,1.34133 -2.26712,-1.24469 -3.65101,-2.45788 -4.47113,-4.91823 -0.17814,-2.17333 -0.21638,-3.16651 0.8104,-5.11384 0.97805,-1.14573 0.97805,-1.14573 2.31939,-1.59284 -0.14755,-3.24603 -0.2951,-6.49207 -0.44712,-9.83647 -1.03282,1.03284 -2.06565,2.06566 -3.12978,3.12979 -1.67045,0.23594 -2.81121,0.30766 -4.44318,0.19561 -1.33714,-0.0645 -2.67429,-0.12911 -4.05195,-0.19561 0,4.57395 0,9.14791 0,13.86047 0.88529,0.44264 0.88529,0.44264 1.78845,0.89423 1.30095,1.3511 1.53435,2.3362 1.53695,4.19168 -0.0652,2.22441 -0.43378,3.52169 -1.98406,5.19767 -1.3284,1.07708 -2.09004,1.32575 -3.80046,1.50901 -2.26132,-0.24229 -3.30066,-0.95369 -4.80645,-2.62679 -1.30095,-1.85849 -1.4187,-3.35713 -1.22956,-5.5889 0.7168,-1.28528 1.33526,-2.33153 2.50595,-3.23862 0.9663,-1.21654 0.82033,-2.31942 0.85263,-3.85055 0.012,-0.44374 0.012,-0.44374 0.0243,-0.89644 0.0242,-0.94295 0.0393,-1.88578 0.0543,-2.82891 0.0148,-0.64012 0.0303,-1.28022 0.0463,-1.92032 0.038,-1.56741 0.0678,-3.13486 0.0934,-4.70253 -0.4657,0.0882 -0.93139,0.17636 -1.4112,0.26722 -2.5811,0.33158 -4.98839,0.56399 -7.2158,-0.97719 -2.00302,-1.82333 -3.72706,-3.88109 -5.39558,-6.01014 -0.76871,-0.97761 -0.76871,-0.97761 -2.04377,-1.9846 -1.37959,-1.68994 -1.17085,-3.18932 -1.06364,-5.29549 0.0461,-1.28182 0.0922,-2.56363 0.13973,-3.88429 -3.68868,0 -7.37736,0 -11.1778,0 -0.2951,0.59019 -0.59019,1.18038 -0.89423,1.78845 -1.22398,1.43684 -2.25791,1.73127 -4.13579,1.98406 -2.25656,-0.26326 -3.33171,-1.20425 -4.80645,-2.87828 -1.03818,-1.76039 -1.07135,-3.34614 -0.89423,-5.36535 0.7704,-2.06791 1.63042,-3.39434 3.5769,-4.47112 1.8736,-0.33524 3.64286,-0.44272 5.35661,0.47331 0.73529,0.58858 0.73529,0.58858 1.79719,1.76225 0,0.2951 0,0.59019 0,0.89423 3.68867,0 7.37734,0 11.1778,0 -0.10144,-0.99594 -0.20288,-1.99189 -0.30739,-3.01801 -0.0909,-2.37523 0.18559,-3.95116 1.81617,-5.80809 0.88202,-0.88772 1.79776,-1.73343 2.72525,-2.5733 0.70197,-0.6901 1.271,-1.40544 1.85437,-2.19735 2.70156,-3.5765 2.70156,-3.5765 4.6615,-4.07117 2.10844,-0.22391 4.14576,-0.0533 6.24036,0.23054 -0.009,-1.80604 -0.0319,-3.61127 -0.0682,-5.41697 -0.0103,-0.61357 -0.0168,-1.2272 -0.0192,-1.84085 -0.004,-0.88469 -0.0237,-1.76927 -0.0436,-2.65374 -0.007,-0.53151 -0.0141,-1.06302 -0.0213,-1.61063 -0.37405,-1.83203 -1.13607,-2.47845 -2.53039,-3.67962 -1.16474,-1.60845 -1.18999,-3.45029 -0.89423,-5.36534 1.86531,-3.73062 4.51459,-5.17705 8.49513,-4.02401 z"
         fill="#0b305f"
         id="path4"
         style="stroke-width:0.447112" />
      <path
         d="m 336.56816,320.14544 c 2.16616,1.36603 3.21297,2.98673 3.94018,5.42473 0.55095,2.74741 0.68457,5.50462 0.7545,8.29952 0.015,0.35977 0.0301,0.71954 0.0455,1.0902 0.11063,3.69607 -0.14944,6.8066 -2.54722,9.75845 -2.54286,2.68166 -5.02322,3.89444 -8.7194,4.00944 -0.65347,-0.005 -1.30694,-0.0197 -1.95997,-0.0443 -0.99085,-0.0314 -1.96648,-2.6e-4 -2.95688,0.0369 -3.62696,0.0274 -6.27108,-0.70607 -8.96494,-3.21537 -2.72654,-2.86965 -3.30137,-5.78255 -3.31055,-9.65111 0.0216,-0.7454 0.0476,-1.49068 0.0777,-2.23578 0.009,-0.37839 0.0184,-0.75677 0.0278,-1.14663 0.25726,-8.63493 0.25726,-8.63493 2.96222,-11.31662 4.90833,-3.81774 15.17884,-3.40357 20.65099,-1.0095 z"
         fill="#fcfdfd"
         id="path13"
         style="stroke-width:0.447112" />
      <path
         d="m 319.94118,325.57017 c 1.96576,-0.011 3.9315,-0.0192 5.89728,-0.0246 0.66921,-0.002 1.33843,-0.006 2.00764,-0.009 0.95998,-0.006 1.91992,-0.008 2.87992,-0.01 0.8675,-0.004 0.8675,-0.004 1.75253,-0.007 1.32311,0.0507 1.32311,0.0507 1.77022,0.49787 0.0396,1.19211 0.0515,2.37259 0.0437,3.56467 -6.2e-4,0.35664 -10e-4,0.71327 -0.002,1.08071 -0.002,1.14354 -0.008,2.28705 -0.0138,3.43058 -0.002,0.77342 -0.004,1.54684 -0.006,2.32027 -0.005,1.89995 -0.0126,3.79987 -0.0218,5.6998 -1.47547,0 -2.95094,0 -4.47112,0 0,-1.03282 0,-2.06566 0,-3.12978 -1.91811,0 -3.83622,0 -5.81246,0 0,1.03283 0,2.06566 0,3.12978 -2.75078,0.0437 -2.75078,0.0437 -3.5769,0 -0.44711,-0.44711 -0.44711,-0.44711 -0.49786,-1.97543 7e-5,-0.67879 0.002,-1.35758 0.007,-2.03635 6.3e-4,-0.35664 10e-4,-0.71327 0.002,-1.08072 0.002,-1.14354 0.008,-2.28704 0.0138,-3.43057 0.002,-0.77343 0.004,-1.54684 0.006,-2.32027 0.005,-1.89995 0.0126,-3.79987 0.0218,-5.69981 z"
         fill="#082c5b"
         id="path19"
         style="stroke-width:0.447112" />
      <path
         d="m 348.55636,295.16655 c 1.9496,0.99319 3.22016,1.96972 4.02401,4.02401 0.31303,2.30709 0.27275,3.96198 -0.83834,6.03601 -0.95011,1.11778 -0.95011,1.11778 -1.84433,2.01201 -0.15792,0.94464 -0.15792,0.94464 -0.16942,2.02772 -0.0152,0.39855 -0.0306,0.7971 -0.0462,1.20773 -0.0118,0.41699 -0.0237,0.83398 -0.0358,1.26361 -0.0267,0.82501 -0.0551,1.64996 -0.0856,2.47484 -0.0107,0.3666 -0.0214,0.73319 -0.0324,1.1109 -0.0776,0.85744 -0.0776,0.85744 -0.52472,1.30455 -0.82844,0.0323 -1.65805,0.0375 -2.48706,0.028 -0.45244,-0.004 -0.90488,-0.008 -1.37103,-0.0122 -0.52477,-0.008 -0.52477,-0.008 -1.06014,-0.0158 5e-4,-0.26804 10e-4,-0.53608 10e-4,-0.81225 -0.006,-1.22943 -0.0313,-2.45766 -0.0574,-3.68682 10e-4,-0.4216 0.002,-0.8432 0.004,-1.27759 -0.0772,-2.77005 -0.51898,-4.0988 -2.47418,-6.06188 -1.18716,-1.33948 -0.90653,-2.7628 -0.80755,-4.44088 0.37838,-2.14419 1.3656,-3.31797 2.99879,-4.67896 1.63123,-0.66732 3.0862,-0.80658 4.80646,-0.503 z"
         fill="#0d3260"
         id="path21"
         style="stroke-width:0.447112" />
      <path
         d="m 305.18648,349.71423 c 1.62303,0 3.24604,0 4.91824,0 0.006,0.78614 0.0127,1.5723 0.0192,2.38227 0.021,1.03162 0.0425,2.06324 0.0646,3.09485 0.002,0.51814 0.005,1.03629 0.008,1.57013 -0.0227,2.93646 -0.0227,2.93646 1.45923,5.31819 0.37347,0.19827 0.74696,0.39653 1.13175,0.60081 1.05429,1.80735 1.21968,3.76328 0.89423,5.81245 -0.9932,1.94962 -1.98325,3.18915 -4.02401,4.02401 -2.15832,0.23982 -3.12036,0.23259 -5.05796,-0.7545 -1.55475,-1.33781 -2.40237,-2.23338 -2.68442,-4.31219 -0.12217,-2.62871 0.19502,-4.12107 1.92992,-6.11111 0.29509,-0.14755 0.59019,-0.29509 0.89422,-0.44711 0.14755,-3.68867 0.2951,-7.37735 0.44711,-11.1778 z"
         fill="#0a2f5e"
         id="path22"
         style="stroke-width:0.447112" />
      <path
         d="m 309.96499,295.6975 c 1.41257,1.10714 2.46548,2.3321 3.26951,3.94017 0.28439,2.74908 -0.14617,4.19659 -1.6592,6.4971 -0.1902,0.21671 -0.3804,0.43341 -0.57636,0.6567 -0.29509,0 -0.59018,0 -0.89422,0 0.004,0.42313 0.004,0.42313 0.007,0.85481 0.009,1.27064 0.0151,2.54126 0.0209,3.81192 0.004,0.44408 0.007,0.88816 0.0113,1.3457 0.002,0.63327 0.002,0.63327 0.004,1.27933 0.004,0.58654 0.004,0.58654 0.007,1.18492 -0.0507,0.91267 -0.0507,0.91267 -0.49788,1.35978 -0.82844,0.0323 -1.65804,0.0375 -2.48706,0.028 -0.45244,-0.004 -0.90487,-0.008 -1.37102,-0.0122 -0.52477,-0.008 -0.52477,-0.008 -1.06015,-0.0158 5e-4,-0.26804 10e-4,-0.53608 10e-4,-0.81225 -0.006,-1.22943 -0.0313,-2.45766 -0.0574,-3.68682 10e-4,-0.4216 0.002,-0.8432 0.004,-1.27759 -0.0768,-2.75487 -0.51171,-4.13208 -2.46218,-6.08982 -1.07371,-1.13906 -1.06805,-2.22597 -1.13917,-3.71957 0.15806,-1.96858 1.05429,-3.21903 2.31241,-4.67372 1.90806,-1.60993 4.33153,-1.65841 6.56695,-0.67066 z"
         fill="#0d315f"
         id="path23"
         style="stroke-width:0.447112" />
      <path
         d="m 377.17154,350.16134 c 0.89422,0.44711 0.89422,0.44711 1.37277,1.73081 0.15562,0.52622 0.31123,1.05243 0.47156,1.59458 0.15793,0.52507 0.31585,1.05013 0.47855,1.59109 0.35979,1.34309 0.35979,1.34309 0.35979,2.23731 2.65584,0 5.31169,0 8.04802,0 -2.59788,2.59788 -2.59788,2.59788 -3.88429,3.71662 -0.25993,0.22882 -0.51987,0.45763 -0.78768,0.69338 -0.69338,0.50824 -0.69338,0.50824 -1.5876,0.50824 0.16657,0.50603 0.33313,1.01207 0.50475,1.53345 0.21383,0.66246 0.42748,1.32498 0.64098,1.98755 0.16555,0.50057 0.16555,0.50057 0.33445,1.01125 0.80603,2.52024 0.80603,2.52024 0.30826,3.51577 -0.32909,-0.29568 -0.65819,-0.59135 -0.99726,-0.89598 -0.43631,-0.37751 -0.87261,-0.75502 -1.32213,-1.14397 -0.43053,-0.37867 -0.86107,-0.75734 -1.30466,-1.14747 -1.20018,-0.94493 -1.20018,-0.94493 -2.45737,-0.82262 -1.15836,0.46787 -1.97915,1.01246 -2.94465,1.80242 -1.61625,1.31339 -1.61625,1.31339 -2.59884,1.31339 0,0.29509 0,0.59019 0,0.89423 -0.29509,-0.14755 -0.59019,-0.2951 -0.89422,-0.44712 0.20143,-0.59047 0.20143,-0.59047 0.40694,-1.19288 0.17003,-0.51929 0.34005,-1.03859 0.51523,-1.57362 0.17118,-0.51354 0.34235,-1.02707 0.51872,-1.55616 0.35984,-1.54243 0.49596,-2.26779 -0.0996,-3.72536 -1.11885,-1.12476 -1.11885,-1.12476 -2.48706,-2.12378 -0.81518,-0.62723 -1.62696,-1.25898 -2.43117,-1.90023 0,-0.14754 0,-0.29509 0,-0.44711 2.65585,0 5.31169,0 8.04802,0 0.1291,-0.6824 0.25821,-1.36481 0.39122,-2.06789 0.34784,-1.74915 0.77942,-3.40901 1.39723,-5.0859 z"
         fill="#ebb024"
         id="path24"
         style="stroke-width:0.447112" />
      <path
         d="m 297.13847,373.85829 c 0.29509,0 0.59018,0 0.89422,0 0.30055,0.86542 0.59805,1.7319 0.89422,2.59883 0.24899,0.72362 0.24899,0.72362 0.50301,1.46185 0.39122,1.30466 0.39122,1.30466 0.39122,2.646 2.5083,0 5.0166,0 7.60091,0 0,0.29509 0,0.59018 0,0.89422 -1.22852,1.06661 -2.51304,2.04752 -3.79871,3.0442 -1.21844,0.89977 -1.21844,0.89977 -1.56664,2.32114 0.26188,0.98837 0.56538,1.96603 0.89423,2.93418 0.32247,0.95151 0.62606,1.91007 0.89422,2.87828 -0.22132,0.44264 -0.22132,0.44264 -0.44711,0.89422 -1.77057,-1.32792 -3.54113,-2.65584 -5.36535,-4.024 -1.50958,0.75479 -2.76732,1.54267 -4.13578,2.515 -0.39884,0.28242 -0.79768,0.56483 -1.20861,0.8558 -0.45301,0.32334 -0.45301,0.32334 -0.91518,0.6532 -0.75361,-1.50721 0.13922,-3.00465 0.64272,-4.527 0.16297,-0.50576 0.16297,-0.50576 0.32923,-1.02172 0.26922,-0.83406 0.54248,-1.6668 0.8165,-2.49929 -0.25129,-0.11527 -0.50258,-0.23055 -0.76149,-0.34931 -1.14636,-0.60827 -2.1234,-1.31748 -3.15074,-2.10981 -0.53601,-0.40806 -0.53601,-0.40806 -1.08285,-0.82436 -0.26973,-0.24438 -0.53947,-0.48875 -0.81738,-0.74053 0,-0.2951 0,-0.59019 0,-0.89422 3.76245,-0.22133 3.76245,-0.22133 7.60091,-0.44712 0.59019,-2.06565 1.18038,-4.13131 1.78845,-6.25956 z"
         fill="#ebb025"
         id="path25"
         style="stroke-width:0.447112" />
      <path
         d="m 356.60438,373.85829 c 1.6046,1.92371 2.02185,3.86799 2.68267,6.25956 2.65585,0.14755 5.31169,0.2951 8.04802,0.44712 -2.59787,2.59787 -2.59787,2.59787 -3.88429,3.71661 -0.25993,0.22882 -0.51987,0.45763 -0.78768,0.69338 -0.69338,0.50824 -0.69338,0.50824 -1.5876,0.50824 0.24985,0.75906 0.24985,0.75906 0.50475,1.53345 0.21383,0.66246 0.42748,1.32498 0.64098,1.98756 0.16555,0.50056 0.16555,0.50056 0.33446,1.01124 0.80602,2.52024 0.80602,2.52024 0.30826,3.51576 -0.54206,-0.45128 -0.54206,-0.45128 -1.09508,-0.91169 -0.48228,-0.38582 -0.96492,-0.7712 -1.44787,-1.1562 -0.35575,-0.29913 -0.35575,-0.29913 -0.7187,-0.6043 -0.79065,-0.64914 -0.79065,-0.64914 -2.1037,-1.35181 -1.77319,0.34182 -2.99852,1.3957 -4.38728,2.515 -0.35331,0.28242 -0.70662,0.56483 -1.07063,0.8558 -0.26454,0.21556 -0.5291,0.43112 -0.80166,0.6532 -0.72291,-1.44582 -0.004,-2.81961 0.41917,-4.30345 0.0873,-0.31584 0.17464,-0.63169 0.2646,-0.9571 0.21634,-0.78091 0.43659,-1.56074 0.65757,-2.34035 -0.72546,-0.66256 -1.45227,-1.32363 -2.17967,-1.98406 -0.4046,-0.36829 -0.8092,-0.73659 -1.22607,-1.11604 -0.98105,-0.92797 -0.98105,-0.92797 -1.95961,-1.37102 0,-0.2951 0,-0.59019 0,-0.89422 2.5083,0 5.0166,0 7.60091,0 0.12911,-0.60864 0.25821,-1.21727 0.39122,-1.84434 0.36767,-1.66238 0.82129,-3.25796 1.39723,-4.86234 z"
         fill="#ecb025"
         id="path26"
         style="stroke-width:0.447112" />
      <path
         d="m 326.64786,384.14186 c 0.2951,0 0.59019,0 0.89423,0 0.29961,0.94963 0.59733,1.89986 0.89423,2.85034 0.16599,0.52909 0.33198,1.05819 0.503,1.60331 0.39122,1.35881 0.39122,1.35881 0.39122,2.25303 2.5083,0 5.0166,0 7.6009,0 0,0.2951 0,0.59019 0,0.89423 -0.77525,0.71821 -1.58192,1.40282 -2.40322,2.06789 -0.4461,0.36541 -0.8922,0.73082 -1.35182,1.1073 -1.16319,0.84882 -1.16319,0.84882 -2.05741,0.84882 0.24985,0.75905 0.24985,0.75905 0.50475,1.53345 0.21383,0.66246 0.42748,1.32498 0.64097,1.98756 0.16556,0.50056 0.16556,0.50056 0.33446,1.01124 0.80603,2.52024 0.80603,2.52024 0.30827,3.51576 -0.3291,-0.29566 -0.6582,-0.59134 -0.99727,-0.89596 -0.4363,-0.37752 -0.87261,-0.75503 -1.32213,-1.14398 -0.43053,-0.37867 -0.86108,-0.75733 -1.30466,-1.14748 -1.19578,-0.93582 -1.19578,-0.93582 -2.42593,-0.85056 -1.3683,0.57158 -2.34444,1.32437 -3.47909,2.27748 -0.59221,0.49192 -0.59221,0.49192 -1.19638,0.99378 -0.29682,0.25301 -0.59364,0.50604 -0.89946,0.76672 -0.69546,-1.39092 -0.0583,-2.33059 0.41917,-3.7725 0.71024,-2.09724 0.71024,-2.09724 0.92217,-4.27551 -0.88077,-0.73529 -1.74222,-1.39075 -2.68268,-2.03995 -0.91833,-0.64014 -1.80057,-1.29229 -2.68267,-1.98406 0,-0.2951 0,-0.59019 0,-0.89423 2.5083,0 5.0166,0 7.60091,0 0.2121,-0.77462 0.4242,-1.54924 0.64272,-2.34733 0.11931,-0.43573 0.23862,-0.87145 0.36153,-1.32038 0.27245,-1.01075 0.53488,-2.02234 0.78419,-3.03897 z"
         fill="#ecb127"
         id="path27"
         style="stroke-width:0.447112" />
      <path
         d="m 276.1242,350.60845 c 1.03285,1.03286 1.21692,1.71281 1.62078,3.10184 0.17464,0.58702 0.17464,0.58702 0.3528,1.18589 0.26198,1.07762 0.26198,1.07762 0.26198,2.41895 2.65584,0 5.31169,0 8.04802,0 -1.37576,1.37576 -2.7013,2.67604 -4.16374,3.94018 -0.3118,0.27031 -0.62361,0.54062 -0.94487,0.81912 -0.23227,0.2 -0.46455,0.39999 -0.70385,0.60605 0.0916,0.3291 0.18328,0.6582 0.2777,0.99727 0.12046,0.4363 0.24091,0.8726 0.36502,1.32212 0.11931,0.43054 0.23861,0.86108 0.36154,1.30466 0.30524,1.17196 0.56015,2.33995 0.78419,3.52974 -1.46773,-0.66654 -2.65172,-1.51401 -3.91223,-2.51501 -0.35734,-0.28241 -0.71468,-0.56482 -1.08285,-0.85579 -0.26974,-0.21556 -0.53947,-0.43112 -0.81738,-0.65321 -0.38904,0.25936 -0.38904,0.25936 -0.78594,0.52396 -1.97358,1.31572 -3.94716,2.63145 -5.92075,3.94717 0.0917,-0.31873 0.18329,-0.63746 0.27771,-0.96583 0.12046,-0.42824 0.24091,-0.85647 0.36502,-1.29768 0.11931,-0.42017 0.23861,-0.84032 0.36154,-1.27322 0.11123,-0.4559 0.22247,-0.91179 0.33708,-1.38151 0.14293,-0.5216 0.28587,-1.0432 0.43313,-1.58061 0.18832,-1.63947 0.18832,-1.63947 -1.11603,-2.81715 -0.49995,-0.38931 -1.00868,-0.76755 -1.52472,-1.13525 -0.90592,-0.68627 -1.80861,-1.37649 -2.71062,-2.0679 0,-0.14754 0,-0.29509 0,-0.44711 2.65585,0 5.31169,0 8.04802,0 0.1291,-0.60863 0.2582,-1.21726 0.39122,-1.84434 0.36766,-1.66237 0.82129,-3.25795 1.39723,-4.86234 z"
         fill="#ecb027"
         id="path28"
         style="stroke-width:0.447112" />
      <path
         d="m 377.61865,288.90698 c 1.37727,2.0659 1.92161,4.34738 2.68267,6.70668 2.5083,0.14755 5.0166,0.29509 7.60091,0.44711 -1.62805,1.62806 -3.11979,3.07233 -4.91824,4.47112 -0.29509,0 -0.59018,0 -0.89422,0 0.1291,0.5072 0.25821,1.01439 0.39122,1.53695 0.50417,2.01307 0.95602,4.03629 1.39723,6.06396 -1.58266,-0.86891 -2.96021,-1.64254 -4.3314,-2.8224 -0.92956,-0.85372 -0.92956,-0.85372 -1.83211,-0.67765 -1.31171,0.49045 -2.39047,1.19657 -3.56118,1.9631 -1.16193,0.76079 -1.16193,0.76079 -2.34734,1.53695 0.59019,-2.5083 1.18038,-5.0166 1.78845,-7.60091 -0.59019,-0.29509 -1.18038,-0.59018 -1.78845,-0.89422 -0.64365,-0.43224 -1.27721,-0.87985 -1.90023,-1.34134 -0.31584,-0.23054 -0.63168,-0.46108 -0.95709,-0.69861 -0.23746,-0.2121 -0.47492,-0.4242 -0.71958,-0.64272 0,-0.2951 0,-0.59019 0,-0.89423 2.36075,0 4.72151,0 7.1538,0 0.20288,-0.7654 0.40576,-1.5308 0.61478,-2.31939 0.44165,-1.66623 0.95243,-3.24491 1.62078,-4.8344 z"
         fill="#ebaf22"
         id="path29"
         style="stroke-width:0.447112" />
      <path
         d="m 386.11378,320.20483 c 0.77594,1.16392 1.18563,2.02214 1.62078,3.32539 0.17464,0.51095 0.17464,0.51095 0.3528,1.0322 0.26198,1.00775 0.26198,1.00775 0.26198,2.7962 2.5083,0 5.0166,0 7.60091,0 -1.31024,1.31024 -2.5386,2.5349 -3.94018,3.71662 -0.40546,0.34322 -0.40546,0.34322 -0.81912,0.69337 -0.2,0.16773 -0.4,0.33544 -0.60605,0.50824 0.0916,0.36138 0.18329,0.72276 0.2777,1.09508 0.12046,0.4778 0.24092,0.9556 0.36503,1.44787 0.1193,0.47204 0.2386,0.94407 0.36153,1.43041 0.29191,1.20547 0.55143,2.40951 0.78419,3.62755 -3.5769,-2.68267 -3.5769,-2.68267 -4.45017,-3.4983 -0.90682,-0.66011 -0.90682,-0.66011 -2.01025,-0.26373 -1.1973,0.66374 -2.22664,1.39421 -3.29222,2.25302 -0.3533,0.28242 -0.7066,0.56484 -1.07062,0.85581 -0.26454,0.21556 -0.52909,0.43111 -0.80165,0.6532 -0.72292,-1.44583 -0.004,-2.81962 0.41916,-4.30346 0.0873,-0.31584 0.17464,-0.63168 0.2646,-0.95709 0.21633,-0.78091 0.43658,-1.56074 0.65757,-2.34036 -0.52477,-0.42016 -0.52477,-0.42016 -1.06015,-0.84881 -0.67866,-0.54812 -0.67866,-0.54812 -1.37102,-1.1073 -0.45129,-0.3631 -0.90257,-0.72621 -1.36754,-1.10032 -1.11952,-0.96757 -1.11952,-0.96757 -1.56664,-1.8618 3.54113,-0.22132 3.54113,-0.22132 7.1538,-0.44711 0.73773,-2.2132 1.47547,-4.42641 2.23556,-6.70668 z"
         fill="#ebaf23"
         id="path30"
         style="stroke-width:0.447112" />
      <path
         d="m 267.62907,320.20483 c 1.11749,1.11749 1.35798,2.07821 1.84433,3.57689 0.15793,0.47953 0.31584,0.95906 0.47856,1.45312 0.35978,1.22955 0.35978,1.22955 0.35978,2.12378 2.36075,0 4.7215,0 7.15379,0 -1.75177,1.75178 -3.48028,3.32887 -5.36534,4.91823 0.59019,2.5083 1.18037,5.0166 1.78844,7.60091 -3.57689,-2.68267 -3.57689,-2.68267 -4.4781,-3.47036 -0.83673,-0.63879 -0.83673,-0.63879 -1.76051,-0.51348 -1.16376,0.51748 -2.04932,1.19934 -3.03896,1.99978 -0.35734,0.28645 -0.71468,0.5729 -1.08285,0.86802 -0.26973,0.22075 -0.53947,0.4415 -0.81738,0.66893 -0.61724,-1.68414 -0.26633,-2.88293 0.19562,-4.5829 0.12852,-0.48184 0.25705,-0.96367 0.38947,-1.4601 0.10202,-0.36656 0.20403,-0.73313 0.30914,-1.1108 -0.41959,-0.31757 -0.83918,-0.63514 -1.27148,-0.96234 -0.54497,-0.41502 -1.08989,-0.83011 -1.63475,-1.24527 -0.27723,-0.20951 -0.55445,-0.41901 -0.84008,-0.63487 -0.69694,-0.53227 -1.38256,-1.07932 -2.06615,-1.62863 0,-0.14755 0,-0.2951 0,-0.44712 2.65585,0 5.31169,0 8.04802,0 0.14755,-1.03283 0.29509,-2.06565 0.44711,-3.12978 0.21103,-0.74243 0.44114,-1.47999 0.69861,-2.20762 0.12046,-0.34524 0.24092,-0.69047 0.36503,-1.04617 0.0916,-0.25418 0.18328,-0.50835 0.2777,-0.77022 z"
         fill="#ecb024"
         id="path31"
         style="stroke-width:0.447112" />
      <path
         d="m 326.64786,260.73892 c 1.03286,1.03285 1.21693,1.71281 1.62079,3.10184 0.17463,0.58701 0.17463,0.58701 0.3528,1.18589 0.26198,1.07761 0.26198,1.07761 0.26198,2.41895 2.5083,0 5.01659,0 7.6009,0 0,0.29509 0,0.59019 0,0.89422 -0.78913,0.62402 -1.60427,1.21542 -2.43117,1.78845 -1.73916,1.09945 -1.73916,1.09945 -2.93417,2.68267 0.34416,1.06378 0.71082,2.09047 1.11778,3.12979 0.40696,1.03931 0.77362,2.06601 1.11778,3.12978 -0.22132,0.44264 -0.22132,0.44264 -0.44711,0.89422 -0.36657,-0.29566 -0.73313,-0.59134 -1.1108,-0.89596 -0.48647,-0.38163 -0.97318,-0.76294 -1.4601,-1.14398 -0.24091,-0.19568 -0.48183,-0.39135 -0.73005,-0.59295 -1.35165,-1.08092 -1.35165,-1.08092 -3.00054,-1.39111 -1.09658,0.57525 -2.01323,1.26116 -2.97609,2.03994 -0.35734,0.28645 -0.71468,0.5729 -1.08285,0.86803 -0.26973,0.22075 -0.53947,0.44149 -0.81737,0.66892 -0.2951,-0.14755 -0.59019,-0.29509 -0.89423,-0.44711 0.13429,-0.40402 0.26858,-0.80805 0.40694,-1.22432 0.17003,-0.52736 0.34005,-1.05473 0.51523,-1.59807 0.17118,-0.52391 0.34235,-1.04782 0.51872,-1.5876 0.48039,-1.40274 0.48039,-1.40274 -0.0995,-2.7438 -0.80639,-0.6353 -1.63945,-1.23725 -2.48706,-1.8164 -0.82582,-0.56491 -1.64068,-1.14712 -2.43118,-1.7605 0,-0.2951 0,-0.59019 0,-0.89422 2.5083,0 5.0166,0 7.60091,0 0.1291,-0.60864 0.25821,-1.21726 0.39122,-1.84434 0.36767,-1.66237 0.8213,-3.25796 1.39722,-4.86234 z"
         fill="#ecb026"
         id="path32"
         style="stroke-width:0.447112" />
      <path
         d="m 276.1242,289.35409 c 0.89422,0.44711 0.89422,0.44711 1.37277,1.76225 0.43663,1.49911 0.87327,2.99821 1.3099,4.49732 2.36075,0.14755 4.7215,0.29509 7.1538,0.44711 -2.67296,3.20754 -2.67296,3.20754 -4.47113,4.47112 -0.29509,0 -0.59019,0 -0.89422,0 0.59018,2.5083 1.18037,5.0166 1.78845,7.60091 -0.97515,-0.65495 -1.95029,-1.3099 -2.92544,-1.96485 -1.09351,-0.71451 -2.21404,-1.3871 -3.33413,-2.05916 -1.77056,1.47547 -3.54113,2.95094 -5.36535,4.47112 -0.44711,-0.89422 -0.44711,-0.89422 -0.0681,-2.19015 0.36152,-1.03457 0.72479,-2.06851 1.08983,-3.10184 0.41686,-1.34235 0.41686,-1.34235 0.0699,-2.37703 -0.85499,-1.09596 -1.8298,-1.85856 -2.93591,-2.69839 -0.73313,-0.55971 -1.46164,-1.12568 -2.17968,-1.70461 0,-0.14755 0,-0.2951 0,-0.44712 2.5083,0 5.0166,0 7.60091,0 0.2121,-0.85762 0.4242,-1.71523 0.64272,-2.59884 0.34398,-1.39086 0.69259,-2.74841 1.14573,-4.10784 z"
         fill="#ebaf22"
         id="path33"
         style="stroke-width:0.447112" />
      <path
         d="m 356.15727,268.78693 c 0.77594,1.16392 1.18563,2.02214 1.62078,3.3254 0.17463,0.51094 0.17463,0.51094 0.3528,1.0322 0.26198,1.00775 0.26198,1.00775 0.26198,2.7962 2.36075,0 4.7215,0 7.15379,0 -1.62221,1.62221 -3.15737,3.03786 -4.91823,4.47111 0.55387,2.54544 1.14584,5.07639 1.78845,7.60091 -0.63385,-0.4185 -1.26716,-0.83783 -1.90023,-1.2575 -0.35273,-0.23343 -0.70546,-0.46685 -1.06887,-0.70735 -0.97037,-0.66029 -1.91075,-1.34686 -2.84336,-2.05916 -1.46773,0.66654 -2.65172,1.51401 -3.91223,2.51501 -0.35734,0.28241 -0.71468,0.56483 -1.08285,0.8558 -0.26973,0.21556 -0.53947,0.43112 -0.81738,0.6532 -0.44711,-0.89422 -0.44711,-0.89422 -0.0838,-2.20587 0.35361,-1.04338 0.70757,-2.08664 1.06189,-3.12978 0.49839,-1.37456 0.49839,-1.37456 -0.0838,-2.71237 -0.73113,-0.64239 -1.48949,-1.2543 -2.2635,-1.84433 -0.74268,-0.56873 -1.48052,-1.14403 -2.20762,-1.73256 0,-0.14755 0,-0.29509 0,-0.44711 2.21321,0 4.42641,0 6.70669,0 0.20288,-0.8484 0.40575,-1.6968 0.61478,-2.5709 0.39327,-1.64459 0.79456,-3.10289 1.62078,-4.5829 z"
         fill="#ebae21"
         id="path34"
         style="stroke-width:0.447112" />
      <path
         d="m 297.58558,268.78693 c 0.77594,1.16392 1.18563,2.02214 1.62078,3.3254 0.17464,0.51094 0.17464,0.51094 0.3528,1.0322 0.26198,1.00775 0.26198,1.00775 0.26198,2.7962 2.36075,0 4.7215,0 7.1538,0 -1.62222,1.62221 -3.15739,3.03786 -4.91824,4.47111 0.48689,2.57431 1.02539,5.09372 1.78845,7.60091 -3.5769,-2.68267 -3.5769,-2.68267 -4.45017,-3.4983 -0.90682,-0.66011 -0.90682,-0.66011 -2.01025,-0.26373 -1.1973,0.66374 -2.22664,1.39421 -3.29222,2.25303 -0.3533,0.28241 -0.7066,0.56483 -1.07062,0.8558 -0.26454,0.21556 -0.52909,0.43112 -0.80166,0.6532 -0.57198,-1.71596 -0.18724,-2.37157 0.41917,-4.05195 0.67822,-1.73536 0.67822,-1.73536 0.92217,-3.54896 -0.79766,-0.70571 -1.62203,-1.38147 -2.45911,-2.03994 -0.82681,-0.65247 -1.6485,-1.31161 -2.45912,-1.98406 0,-0.14755 0,-0.29509 0,-0.44711 2.2132,-0.14755 4.42641,-0.2951 6.70668,-0.44711 0.73773,-2.21321 1.47547,-4.42641 2.23556,-6.70669 z"
         fill="#ebae22"
         id="path35"
         style="stroke-width:0.447112" />
      <path
         d="m 323.96519,330.93552 c 1.91812,0 3.83623,0 5.81246,0 0,1.18038 0,2.36075 0,3.5769 -1.91811,0 -3.83622,0 -5.81246,0 0,-1.18038 0,-2.36076 0,-3.5769 z"
         fill="#f9fafb"
         id="path48"
         style="stroke-width:0.447112" />
      <path
         d="m 356.60438,373.85829 c 1.58184,1.6506 1.60565,3.17176 1.78845,5.36534 -0.89423,-0.89423 -0.89423,-0.89423 -1.34134,-2.23556 -0.44264,0.88528 -0.88528,1.77056 -1.34134,2.68267 -0.53104,-1.53334 -0.3587,-2.4045 0.19562,-3.91223 0.12852,-0.35734 0.25705,-0.71469 0.38947,-1.08285 0.10202,-0.26974 0.20404,-0.53947 0.30914,-0.81737 z"
         fill="#e9a618"
         id="path52"
         style="stroke-width:0.447112" />
      <path
         d="m 280.1482,364.46893 c 0.89423,0.44711 0.89423,0.44711 1.27497,1.56664 0.11412,0.45128 0.22824,0.90257 0.34582,1.36753 0.11642,0.45244 0.23284,0.90488 0.3528,1.37103 0.0865,0.34985 0.1729,0.69969 0.26198,1.06014 -1.68333,-0.76972 -2.75003,-1.78502 -4.02401,-3.12978 1.1066,0.44264 1.1066,0.44264 2.23556,0.89422 -0.14755,-1.03283 -0.29509,-2.06566 -0.44712,-3.12978 z"
         fill="#e9a718"
         id="path54"
         style="stroke-width:0.447112" />
      <path
         d="m 323.07097,272.36383 c 0.51846,1.55537 0.34632,1.94145 -0.19561,3.43718 -0.12853,0.36137 -0.25706,0.72274 -0.38948,1.09507 -0.10201,0.27492 -0.20403,0.54984 -0.30913,0.8331 0.29509,0.14754 0.59018,0.29509 0.89422,0.44711 -0.44264,0.44264 -0.88528,0.88528 -1.34133,1.34133 -0.2951,-0.14755 -0.59019,-0.29509 -0.89423,-0.44711 0.73773,-2.21321 1.47547,-4.42641 2.23556,-6.70668 z"
         fill="#eaa718"
         id="path55"
         style="stroke-width:0.447112" />
      <path
         d="m 405.3396,322.8875 c 0.29509,0.14755 0.59019,0.2951 0.89423,0.44711 0,2.36076 0,4.7215 0,7.1538 -0.14755,0 -0.2951,0 -0.44711,0 -0.14755,-1.32793 -0.2951,-2.65585 -0.44712,-4.02402 -0.14754,0 -0.29509,0 -0.44711,0 -0.019,-1.04308 -0.0183,-2.08667 0,-3.12978 0.14754,-0.14754 0.29509,-0.29509 0.44711,-0.44711 z"
         fill="#163d69"
         id="path57"
         style="stroke-width:0.447112" />
      <path
         d="m 277.46553,304.10879 c 1.11493,0.53824 2.09313,1.09734 3.12979,1.78845 0.29509,-0.29509 0.59018,-0.59019 0.89422,-0.89423 0.2951,1.03284 0.59019,2.06566 0.89423,3.12979 -0.65413,-0.41589 -1.30568,-0.83585 -1.95612,-1.2575 -0.36311,-0.23343 -0.7262,-0.46685 -1.10031,-0.70735 -0.96758,-0.71783 -0.96758,-0.71783 -1.86181,-2.05916 z"
         fill="#e9a619"
         id="path58"
         style="stroke-width:0.447112" />
      <path
         d="m 271.65308,333.61819 c 1.14973,1.14973 1.25244,2.05897 1.62078,3.63279 0.11642,0.4899 0.23285,0.9798 0.35279,1.48455 0.12969,0.56541 0.12969,0.56541 0.26198,1.14223 -1.103,-0.94417 -1.72191,-1.50694 -2.0609,-2.94116 -0.0207,-0.39422 -0.0415,-0.78845 -0.0629,-1.19462 -0.0253,-0.39884 -0.0507,-0.79768 -0.0768,-1.20861 -0.0115,-0.30201 -0.023,-0.60402 -0.0349,-0.91518 z"
         fill="#e7a312"
         id="path60"
         style="stroke-width:0.447112" />
      <path
         d="m 396.84447,368.04582 c 0.2951,0.14755 0.59019,0.2951 0.89422,0.44711 0,0.2951 0,0.59019 0,0.89423 -0.29509,0 -0.59019,0 -0.89422,0 -0.17982,0.49797 -0.17982,0.49797 -0.36328,1.006 -0.50514,1.16981 -1.07147,2.0352 -1.87228,3.01801 0.25769,-2.12593 1.14045,-3.5637 2.23556,-5.36535 z"
         fill="#0e2352"
         id="path61"
         style="stroke-width:0.447112" />
      <path
         d="m 277.46553,327.80574 c -1.59091,1.01169 -2.73877,0.927 -4.58289,0.72655 -0.48184,-0.0495 -0.96367,-0.0991 -1.46011,-0.1502 -0.54984,-0.064 -0.54984,-0.064 -1.11079,-0.12924 0,-0.14755 0,-0.2951 0,-0.44711 0.85659,-0.0876 1.71366,-0.1705 2.5709,-0.25151 0.71583,-0.07 0.71583,-0.07 1.44612,-0.14146 1.18799,-0.0477 2.01881,0.0266 3.13677,0.39297 z"
         fill="#eaa812"
         id="path63"
         style="stroke-width:0.447112" />
      <path
         d="m 256.00415,273.70516 c 0,1.63354 -0.39767,2.26252 -1.34133,3.5769 -0.94313,0.51523 -0.94313,0.51523 -1.78845,0.89423 0.43717,-0.66177 0.87511,-1.32303 1.31339,-1.98406 0.2438,-0.36829 0.48759,-0.73658 0.73878,-1.11604 0.6305,-0.92391 0.6305,-0.92391 1.07761,-1.37103 z"
         fill="#091e4f"
         id="path64"
         style="stroke-width:0.447112" />
      <path
         d="m 388.79645,336.74797 c 0.88528,0.44265 0.88528,0.44265 1.78845,0.89423 0.2951,-0.29509 0.59019,-0.59019 0.89423,-0.89423 0.47505,0.81039 0.47505,0.81039 0.89422,1.78846 -0.14755,0.44263 -0.2951,0.88527 -0.44711,1.34133 -0.52294,-0.43623 -1.04428,-0.87438 -1.56489,-1.31339 -0.29049,-0.2438 -0.58097,-0.4876 -0.88026,-0.73878 -0.22593,-0.20807 -0.45186,-0.41613 -0.68464,-0.6305 0,-0.14755 0,-0.29509 0,-0.44712 z"
         fill="#eaa414"
         id="path65"
         style="stroke-width:0.447112" />
      <path
         d="m 326.20075,386.82453 c 0.503,0.7545 0.503,0.7545 0.89423,1.78845 -0.39123,1.22956 -0.39123,1.22956 -0.89423,2.23556 -0.29509,-0.14754 -0.59018,-0.29509 -0.89422,-0.44711 0.39123,-3.07389 0.39123,-3.07389 0.89422,-3.5769 z"
         fill="#eaaa1b"
         id="path67"
         style="stroke-width:0.447112" />
      <path
         d="m 265.84062,336.74797 c -1.18038,0.88529 -2.36075,1.77057 -3.5769,2.68268 0.0838,-1.0619 0.0838,-1.0619 0.44711,-2.23556 1.8908,-1.06661 1.8908,-1.06661 3.12979,-0.44712 z"
         fill="#e8a619"
         id="path68"
         style="stroke-width:0.447112" />
      <path
         d="m 302.95093,362.68048 c 0.49136,1.47411 0.38954,1.9695 0.0279,3.43717 -0.087,0.36138 -0.17405,0.72275 -0.26372,1.09508 -0.10461,0.41238 -0.10461,0.41238 -0.21133,0.83309 -0.14755,0 -0.29509,0 -0.44711,0 -0.0243,-0.64253 -0.0415,-1.28533 -0.0559,-1.92817 -0.0104,-0.35791 -0.0207,-0.71583 -0.0314,-1.08459 0.0873,-1.01124 0.0873,-1.01124 0.98155,-2.35258 z"
         fill="#041444"
         id="path69"
         style="stroke-width:0.447112" />
      <path
         d="m 341.40257,342.11332 c -0.44712,1.34134 -0.44712,1.34134 -1.53695,2.12378 -0.56714,0.27665 -0.56714,0.27665 -1.14572,0.55889 -0.2951,-0.14754 -0.59019,-0.29509 -0.89423,-0.44711 2.0679,-2.23556 2.0679,-2.23556 3.5769,-2.23556 z"
         fill="#223e67"
         id="path70"
         style="stroke-width:0.447112" />
    </g>
  </g>
</svg>
